<?xml version="1.0" encoding="UTF-8"?>
<svg width="17px" height="17px" viewBox="0 0 17 17" version="1.1" xmlns="http://www.w3.org/2000/svg" xmlns:xlink="http://www.w3.org/1999/xlink">
    <!-- Generator: Sketch 48.2 (47327) - http://www.bohemiancoding.com/sketch -->
    <title>icon-info</title>
    <desc>Created with Sketch.</desc>
    <defs></defs>
    <g id="lp-password-generator-hov-read" stroke="none" stroke-width="1" fill="none" fill-rule="evenodd" transform="translate(-818.000000, -241.000000)" fill-opacity="0.5">
        <g id="icon-info" transform="translate(818.000000, 241.000000)" fill="#506175">
            <path d="M8.5,0 C13.192,0 17,3.808 17,8.5 C17,13.192 13.192,17 8.5,17 C3.808,17 0,13.192 0,8.5 C0,3.808 3.808,0 8.5,0 Z M7.4375,7.61458333 L7.4375,11.8544963 C7.4375,12.4501898 7.9206933,12.9330948 8.51674244,12.9330948 C9.11279158,12.9330948 9.59598488,12.4501898 9.59598488,11.8544963 L9.59598488,7.61458333 C9.59598488,7.01888984 9.11279158,6.53598485 8.51674244,6.53598485 C7.9206933,6.53598485 7.4375,7.01888984 7.4375,7.61458333 Z M8.51674244,5.34598488 C9.11279158,5.34598488 9.59598488,4.86279158 9.59598488,4.26674244 C9.59598488,3.6706933 9.11279158,3.1875 8.51674244,3.1875 C7.9206933,3.1875 7.4375,3.6706933 7.4375,4.26674244 C7.4375,4.86279158 7.9206933,5.34598488 8.51674244,5.34598488 Z" id="Combined-Shape"></path>
        </g>
    </g>
</svg>